<?xml version="1.0" encoding="iso-8859-1"?>
<!-- Generator: Adobe Illustrator 19.0.0, SVG Export Plug-In . SVG Version: 6.00 Build 0)  -->
<svg version="1.2" baseProfile="tiny" xmlns="http://www.w3.org/2000/svg" xmlns:xlink="http://www.w3.org/1999/xlink" x="0px"
	 y="0px" viewBox="0 0 1024 1024" xml:space="preserve">
<g id="Layer_4" display="none">
	<path display="inline" fill="#FFFFFF" stroke="#3D3D36" stroke-miterlimit="10" d="M498.699,134.332c0,0,0,243.164,0,288.082
		c0,44.918,36.328,71.918,72.164,71.918c35.836,0,324.17,0.168,360.003,0.168s71.833-27.168,71.833-72.168s0-288,0-288H498.699z"/>
	
		<rect x="480.699" y="-0.334" display="inline" fill="#3D3D36" stroke="#3D3D36" stroke-width="2" stroke-miterlimit="10" width="540" height="62.833"/>
	<polygon display="inline" fill="#FFFFFF" stroke="#3D3D36" stroke-miterlimit="10" points="1011.699,62.499 948.699,-0.501 
		903.699,-0.501 966.699,62.499 	"/>
	<polygon display="inline" fill="#FFFFFF" stroke="#3D3D36" stroke-miterlimit="10" points="921.699,62.499 858.699,-0.501 
		813.699,-0.501 876.699,62.499 	"/>
	<polygon display="inline" fill="#FFFFFF" stroke="#3D3D36" stroke-miterlimit="10" points="831.699,62.499 768.699,-0.501 
		723.699,-0.501 786.699,62.499 	"/>
	<polygon display="inline" fill="#FFFFFF" stroke="#3D3D36" stroke-miterlimit="10" points="741.699,62.499 678.699,-0.501 
		633.699,-0.501 696.699,62.499 	"/>
	<polygon display="inline" fill="#FFFFFF" stroke="#3D3D36" stroke-miterlimit="10" points="651.699,62.499 588.699,-0.501 
		543.699,-0.501 606.699,62.499 	"/>
	
		<rect x="480.699" y="71.499" display="inline" fill="#3D3D36" stroke="#3D3D36" stroke-width="2" stroke-miterlimit="10" width="540" height="62.833"/>
	<polygon display="inline" fill="none" stroke="#3D3D36" stroke-miterlimit="10" points="516.699,206.499 642.699,206.499 
		975.699,206.499 	"/>
	<path display="inline" fill="none" stroke="#3D3D36" stroke-miterlimit="10" d="M642.368,305.499v-99V305.499z"/>
	<path display="inline" fill="none" stroke="#3D3D36" stroke-miterlimit="10" d="M517.033,305.498h459H517.033z"/>
	<path display="inline" fill="none" stroke="#3D3D36" stroke-miterlimit="10" d="M858.534,206.499v99V206.499z"/>
	<line display="inline" fill="none" stroke="#3D3D36" stroke-miterlimit="10" x1="516.699" y1="404.5" x2="966.699" y2="404.5"/>
	<polygon display="inline" fill="#FFFFFF" stroke="#3D3D36" stroke-miterlimit="10" points="1011.699,71.499 948.699,134.499 
		903.699,134.499 966.699,71.499 	"/>
	<polygon display="inline" fill="#FFFFFF" stroke="#3D3D36" stroke-miterlimit="10" points="921.699,71.499 858.699,134.499 
		813.699,134.499 876.699,71.499 	"/>
	<polygon display="inline" fill="#FFFFFF" stroke="#3D3D36" stroke-miterlimit="10" points="831.699,71.499 768.699,134.499 
		723.699,134.499 786.699,71.499 	"/>
	<polygon display="inline" fill="#FFFFFF" stroke="#3D3D36" stroke-miterlimit="10" points="741.699,71.499 678.699,134.499 
		633.699,134.499 696.699,71.499 	"/>
	<polygon display="inline" fill="#FFFFFF" stroke="#3D3D36" stroke-miterlimit="10" points="651.699,71.499 588.699,134.499 
		543.699,134.499 606.699,71.499 	"/>
	<polygon id="XMLID_1_" display="inline" stroke="#3D3D36" stroke-miterlimit="10" points="489.699,8.499 543.699,8.499 
		579.699,53.499 579.699,80.499 543.699,125.499 489.699,125.499 	"/>
	<polygon display="inline" fill="#3D3D36" stroke="#3D3D36" stroke-width="2" stroke-miterlimit="10" points="516.699,44.499 
		507.699,44.499 498.699,35.499 498.699,26.499 507.699,17.499 516.699,17.499 525.699,26.499 525.699,35.499 	"/>
	<polygon display="inline" fill="#3D3D36" stroke="#3D3D36" stroke-width="2" stroke-miterlimit="10" points="516.699,116.499 
		507.699,116.499 498.699,107.499 498.699,98.499 507.699,89.499 516.699,89.499 525.699,98.499 525.699,107.499 	"/>
	<path display="inline" fill="none" stroke="#3D3D36" stroke-width="2" stroke-miterlimit="10" d="M525.699,196.999v-18
		c0,0,8.035-0.026,10.024,1.024c1.437,0.759,2.029,4.972,1.476,6.5c-0.553,1.524-11.5,1.476-11.5,1.476"/>
	<path display="inline" fill="none" stroke="#3D3D36" stroke-width="2" stroke-miterlimit="10" d="M543.699,196.999v-9
		c0,0,1.416,2.015,2.167,2.125c1.13,0.166,4.041-2.125,4.041-2.125"/>
	<path display="inline" fill="none" stroke="#3D3D36" stroke-width="2" stroke-miterlimit="10" d="M556.99,196.999
		c-1.608,0.119-4.032-2.887-4.041-4.5c-0.009-1.613,2.376-4.755,3.969-4.5c1.446,0.232,4.502,3.039,4.406,4.5
		C561.233,193.884,558.451,196.892,556.99,196.999z"/>
	<path display="inline" fill="none" stroke="#3D3D36" stroke-width="2" stroke-miterlimit="10" d="M573.199,178.999l0.333,18.668
		l-0.044-2.834c0,0-1.593,1.807-2.122,2.17c-1.049,0.719-3.354,0.808-4.334,0c-1.464-1.205-2.024-6.943-0.833-8.419
		c0.495-0.613,3.699-0.663,4.416-0.334c1.103,0.506,2.584,4.244,2.584,4.244"/>
	<path display="inline" fill="none" stroke="#3D3D36" stroke-width="2" stroke-miterlimit="10" d="M550.949,228.999v-16.5
		c0,0,10.025-0.256,11.917,2.106c0.583,0.728,0.507,3.083-0.167,3.728c-2.165,2.075-11.75,2.416-11.75,2.416l10.377,8.25"/>
	<path display="inline" fill="none" stroke="#3D3D36" stroke-width="2" stroke-miterlimit="10" d="M569.99,228.999
		c-1.608,0.119-4.032-2.887-4.041-4.5c-0.009-1.613,2.376-4.755,3.969-4.5c1.446,0.232,4.502,3.039,4.406,4.5
		C574.233,225.884,571.451,228.892,569.99,228.999z"/>
	
		<line display="inline" fill="none" stroke="#3D3D36" stroke-width="2" stroke-miterlimit="10" x1="585.532" y1="229.002" x2="585.532" y2="212.499"/>
	
		<line display="inline" fill="none" stroke="#3D3D36" stroke-width="2" stroke-miterlimit="10" x1="579.532" y1="229.002" x2="579.532" y2="212.499"/>
	<path display="inline" fill="#FFFFFF" stroke="#3D3D36" stroke-width="2" stroke-miterlimit="10" d="M704.367,224.493
		c0,0,3.045,4.478,4.667,4.506c1.683,0.029,5.158-2.831,5-4.506c-0.155-1.645-3.497-3.536-4.833-4.509
		c-1.288-0.938-4.939-2.562-4.834-4.152c0.098-1.465,3.376-3.501,4.834-3.334c1.458,0.167,4.833,3.334,4.833,3.334"/>
	<path display="inline" fill="none" stroke="#3D3D36" stroke-width="2" stroke-miterlimit="10" d="M726.866,220.744
		c0,0-2.373-1.934-3.333-1.912c-1.444,0.033-4.027,2.563-4.167,4c-0.182,1.875,2.451,6.08,4.334,6.166
		c1.008,0.046,3.166-2.5,3.166-2.5"/>
	<polyline display="inline" fill="#FFFFFF" stroke="#3D3D36" stroke-width="2" stroke-miterlimit="10" points="739.033,228.999 
		736.7,228.999 732.533,228.999 732.533,225.165 736.867,225.165 732.533,224.833 732.533,219.583 738.866,219.54 	"/>
	<path display="inline" fill="#FFFFFF" stroke="#3D3D36" stroke-width="2" stroke-miterlimit="10" d="M743.2,229.874v-11.438v1.896
		c0,0,5.712-1.578,6.833-0.792c1.873,1.313,1.541,10,1.541,10"/>
	<polyline display="inline" fill="#FFFFFF" stroke="#3D3D36" stroke-width="2" stroke-miterlimit="10" points="762.346,228.999 
		760.013,228.999 755.846,228.999 755.846,225.165 760.18,225.165 755.846,224.833 755.846,219.583 762.179,219.54 	"/>
	<polyline display="inline" fill="#FFFFFF" stroke="#3D3D36" stroke-width="2" stroke-miterlimit="10" points="897.699,229.874 
		897.699,212.489 889.199,212.489 906.199,212.489 	"/>
	<polyline display="inline" fill="#FFFFFF" stroke="#3D3D36" stroke-width="2" stroke-miterlimit="10" points="905.949,229.874 
		914.032,212.489 921.824,229.874 918.798,223.124 909.683,223.104 	"/>
	<polyline display="inline" fill="#FFFFFF" stroke="#3D3D36" stroke-width="2" stroke-miterlimit="10" points="926.366,229.874 
		926.366,211.322 927.006,221.946 936.866,211.322 927.146,221.946 936.866,229.874 	"/>
	<polyline display="inline" fill="#FFFFFF" stroke="#3D3D36" stroke-width="2" stroke-miterlimit="10" points="954.699,229.874 
		943.366,229.874 943.366,221.833 954.032,221.167 943.366,220.598 943.366,212.489 954.699,212.489 	"/>
</g>
<g id="background_1_" display="none">
	<rect id="background" x="-1044" display="inline" fill="#FFF9E9" width="1024" height="1024"/>
</g>
<g id="crow">
	<path fill="#3D3D36" d="M-926.194,682.526c171.86-203.858,389.37-433.854,448.282-459.192l60.246,0.666
		c10.081,56.265,109.333,387.329-310.733,380.583L-926.194,682.526z"/>
	<path fill="#F8C62C" d="M-479,223.329h114.667c104,16,204,172,204,172l-238.667,2c-43.5,0.171-103.332-11.999-107.666-79.998
		C-511,249.333-479,223.329-479,223.329z"/>
	<polygon fill="#3D3D36" points="-479,223.329 -479,196 -650.5,163 -650.5,152 -193,152 -193,238 -176,259 -226,259 -207.5,238.25 
		-207.5,166 -362.75,196.5 -362.753,223.329 	"/>
	<path fill="#B7B7BC" d="M-822.5,582l162-183.5c0,0,30-28.5,61-27.5s68,20,71,76s-73,81.5-115.5,96.5S-822.5,582-822.5,582z"/>
	<path fill="#3D3D36" d="M-658,601.331c0,0,0.169,11.498,6.001,21.667c5.833,10.169,17.832,18.996,34.666,17.999
		C-600.5,640-592.848,624.822-592,616.664s0-34.331,0-34.331L-658,601.331z"/>
	<path fill="#3D3D36" d="M-599.25,594.5c0,0,14.063,12.313,24.188,18.063s19.146,7.932,30.938,9.432s37.25-3.494,43.75-14.494
		s4.125-18.75,1.625-24.125s-11.5-13-14.5-15.5s-10.5-5.75-10.5-5.75L-599.25,594.5z"/>
	<polygon fill="#3D3D36" points="-622.315,639.81 -579.75,702 -630,702 -630,715.75 -491.25,715.75 -491.25,702.25 
		-562.146,702.167 -608.045,631.205 	"/>
	<polygon fill="#3D3D36" points="-504.873,595.269 -435.103,630.255 -435.103,560.755 -421.353,560.755 -421.353,683.755 
		-434.853,683.506 -434.936,647.858 -512.18,608.241 	"/>
	<path fill="#3D3D36" d="M-296.332,396.468c-72.667-18.133-94.334-57.8-94.334-57.8s46,47,173.674,57.135L-296.332,396.468z"/>
	<circle fill="#FFFFFF" cx="-406.195" cy="282.596" r="34.5"/>
	<path fill="#3E3D37" d="M-417.25,287.563c0-1.688,0.203-3.329,0.587-4.898c0,0,17.998,7.077,19.851,4.773
		c1.562-1.942-10.28-17.615-10.28-17.615c3.052-1.794,6.608-2.823,10.405-2.823c11.356,0,20.563,9.206,20.563,20.563
		s-9.206,20.563-20.563,20.563C-408.044,308.125-417.25,298.919-417.25,287.563z"/>
</g>
<g id="label">
	<text transform="matrix(1 0 0 1 -987.8984 927)" fill="#3D3D36" font-family="'PoiretOne-Regular'" font-size="144px">&#x418;&#x41D;&#x422;&#x415;&#x41B;&#x412;&#x418;&#x414;&#x415;&#x41E;</text>
</g>
<g id="Clapper_Basic" display="none">
	<path display="inline" fill="#FFFFFF" stroke="#3D3D36" stroke-width="5" stroke-miterlimit="10" d="M135.717,465.083
		c0,0,0,243.163,0,288.081c0,44.918,36.328,71.918,72.164,71.918c35.836,0,324.17,0.168,360.003,0.168s71.833-27.168,71.833-72.168
		s0-287.999,0-287.999H135.717z"/>
	
		<rect x="117.717" y="334.667" display="inline" fill="#3D3D36" stroke="#3D3D36" stroke-width="2" stroke-miterlimit="10" width="540" height="62.833"/>
	
		<rect x="117.717" y="406.5" display="inline" fill="#3D3D36" stroke="#3D3D36" stroke-width="2" stroke-miterlimit="10" width="540" height="62.833"/>
	<polygon display="inline" fill="none" stroke="#3D3D36" stroke-width="5" stroke-miterlimit="10" points="153.717,541.5 
		279.717,541.5 612.717,541.5 	"/>
	<path display="inline" fill="none" stroke="#3D3D36" stroke-width="5" stroke-miterlimit="10" d="M279.386,640.5v-99V640.5z"/>
	<path display="inline" fill="none" stroke="#3D3D36" stroke-width="5" stroke-miterlimit="10" d="M154.051,640.499h459H154.051z"/>
	<path display="inline" fill="none" stroke="#3D3D36" stroke-width="5" stroke-miterlimit="10" d="M495.552,541.5v99V541.5z"/>
	
		<line display="inline" fill="none" stroke="#3D3D36" stroke-width="5" stroke-miterlimit="10" x1="153.717" y1="739.5" x2="603.717" y2="739.5"/>
	<polyline display="inline" fill="none" stroke="#3D3D36" stroke-width="5" stroke-miterlimit="10" points="160.475,530.282 
		183.475,514.782 198.475,530.282 226.975,518.782 	"/>
	<polyline display="inline" fill="none" stroke="#3D3D36" stroke-width="5" stroke-miterlimit="10" points="351.475,570.282 
		374.475,554.782 389.475,570.282 417.975,558.782 	"/>
	<polyline display="inline" fill="none" stroke="#3D3D36" stroke-width="5" stroke-miterlimit="10" points="182.512,570.282 
		205.512,554.782 220.512,570.282 249.012,558.782 	"/>
	<polyline display="inline" fill="none" stroke="#3D3D36" stroke-width="5" stroke-miterlimit="10" points="523.109,570.282 
		546.109,554.782 561.109,570.282 589.609,558.782 	"/>
	<polyline display="inline" fill="none" stroke="#3D3D36" stroke-width="5" stroke-miterlimit="10" points="193.725,768.685 
		216.725,753.185 231.725,768.685 260.225,757.185 	"/>
	<polyline display="inline" fill="none" stroke="#3D3D36" stroke-width="5" stroke-miterlimit="10" points="173.018,723.933 
		196.018,708.433 211.018,723.933 239.518,712.433 	"/>
	<polyline display="inline" fill="none" stroke="#3D3D36" stroke-width="5" stroke-miterlimit="10" points="173.018,689.627 
		196.018,674.127 211.018,689.627 239.518,678.127 	"/>
	<polyline display="inline" fill="none" stroke="#3D3D36" stroke-width="5" stroke-miterlimit="10" points="523.109,804.104 
		546.109,788.604 561.109,804.104 589.609,792.604 	"/>
	<polygon display="inline" fill="#B7B7BC" points="585,414 558,459 612,459 639,414 	"/>
	<polygon display="inline" fill="#B7B7BC" points="477,414 450,459 504,459 531,414 	"/>
	<polygon display="inline" fill="#B7B7BC" points="369,414 342,459 396,459 423,414 	"/>
	<polygon display="inline" fill="#B7B7BC" points="261,414 234,459 288,459 315,414 	"/>
	<polygon display="inline" fill="#B7B7BC" points="585,387 558,342 612,342 639,387 	"/>
	<polygon display="inline" fill="#B7B7BC" points="477,387 450,342 504,342 531,387 	"/>
	<polygon display="inline" fill="#B7B7BC" points="369,387 342,342 396,342 423,387 	"/>
	<polygon display="inline" fill="#B7B7BC" points="261,387 234,342 288,342 315,387 	"/>
</g>
<g id="Clapper_Placed">
	<path fill="#FFFFFF" stroke="#3D3D36" stroke-width="5" stroke-miterlimit="10" d="M-438.817,581.452
		c0,0-32.539,95.95-38.55,113.676c-6.01,17.724,4.712,33.238,18.853,38.034c14.141,4.795,127.892,43.444,142.032,48.239
		c14.14,4.795,31.981-1.108,38.003-18.865c6.022-17.757,38.537-113.642,38.537-113.642L-438.817,581.452z"/>
	
		<rect x="-437.773" y="528.626" fill="#3D3D36" stroke="#3D3D36" stroke-width="2" stroke-miterlimit="10" width="225" height="26.181"/>
	
		<rect x="-348.836" y="491.954" transform="matrix(-0.3211 0.947 -0.947 -0.3211 128.8674 1116.532)" fill="#3D3D36" stroke="#3D3D36" stroke-width="2" stroke-miterlimit="10" width="26.182" height="225"/>
	<polygon fill="none" stroke="#3D3D36" stroke-width="5" stroke-miterlimit="10" points="-441.94,614.014 -392.222,630.874 
		-260.821,675.434 	"/>
	<path fill="none" stroke="#3D3D36" stroke-width="5" stroke-miterlimit="10" d="M-405.6,669.896l13.248-39.066L-405.6,669.896z"/>
	<path fill="none" stroke="#3D3D36" stroke-width="5" stroke-miterlimit="10" d="M-455.057,653.123l181.12,61.421L-455.057,653.123z
		"/>
	<path fill="none" stroke="#3D3D36" stroke-width="5" stroke-miterlimit="10" d="M-307.054,659.756l-13.248,39.066L-307.054,659.756
		z"/>
	
		<line fill="none" stroke="#3D3D36" stroke-width="5" stroke-miterlimit="10" x1="-468.436" y1="692.144" x2="-290.868" y2="752.36"/>
	<polyline fill="none" stroke="#3D3D36" stroke-width="5" stroke-miterlimit="10" points="-437.773,610.492 -426.623,607.454 
		-422.778,615.577 -409.993,614.852 	"/>
	<polyline fill="none" stroke="#3D3D36" stroke-width="5" stroke-miterlimit="10" points="-367.758,651.834 -356.607,648.795 
		-352.764,656.919 -339.979,656.195 	"/>
	<polyline fill="none" stroke="#3D3D36" stroke-width="5" stroke-miterlimit="10" points="-434.43,629.225 -423.28,626.185 
		-419.436,634.31 -406.65,633.586 	"/>
	<polyline fill="none" stroke="#3D3D36" stroke-width="5" stroke-miterlimit="10" points="-300.031,674.802 -288.882,671.763 
		-285.037,679.887 -272.252,679.163 	"/>
	<polyline fill="none" stroke="#3D3D36" stroke-width="5" stroke-miterlimit="10" points="-456.554,709.015 -445.404,705.975 
		-441.56,714.099 -428.774,713.375 	"/>
	<polyline fill="none" stroke="#3D3D36" stroke-width="5" stroke-miterlimit="10" points="-458.736,688.585 -447.587,685.545 
		-443.742,693.67 -430.957,692.945 	"/>
	<polyline fill="none" stroke="#3D3D36" stroke-width="5" stroke-miterlimit="10" points="-454.146,675.047 -442.996,672.009 
		-439.151,680.132 -426.367,679.408 	"/>
	<polyline fill="none" stroke="#3D3D36" stroke-width="5" stroke-miterlimit="10" points="-331.319,767.066 -320.17,764.027 
		-316.325,772.151 -303.54,771.427 	"/>
	<polygon fill="#B7B7BC" points="-254.697,621.414 -271.373,635.559 -250.065,642.784 -233.389,628.641 	"/>
	<polygon fill="#B7B7BC" points="-297.314,606.963 -313.989,621.106 -292.681,628.332 -276.005,614.188 	"/>
	<polygon fill="#B7B7BC" points="-339.93,592.511 -356.606,606.654 -335.297,613.881 -318.622,599.736 	"/>
	<polygon fill="#B7B7BC" points="-382.546,578.059 -399.222,592.203 -377.913,599.429 -361.238,585.285 	"/>
	<polygon fill="#B7B7BC" points="-243.072,550.433 -254.322,531.683 -231.822,531.683 -220.572,550.433 	"/>
	<polygon fill="#B7B7BC" points="-288.072,550.433 -299.322,531.683 -276.822,531.683 -265.572,550.433 	"/>
	<polygon fill="#B7B7BC" points="-333.072,550.433 -344.322,531.683 -321.822,531.683 -310.572,550.433 	"/>
	<polygon fill="#B7B7BC" points="-378.072,550.433 -389.322,531.683 -366.822,531.683 -355.572,550.433 	"/>
</g>
<g id="Mic_Basic" display="none">
	<path display="inline" fill="#FFFFFF" stroke="#000000" stroke-miterlimit="10" d="M467.041,861.571"/>
	<path display="inline" fill="#B7B7BC" stroke="#3D3D36" stroke-width="5" stroke-miterlimit="10" d="M441,416
		c0-34.794,28.206-63,63-63c38.005,0,63,28.206,63,63c0,34.793-28.206,63-63,63S441,450.793,441,416z"/>
	<rect x="468" y="468" display="inline" fill="#3D3D36" width="72" height="396"/>
	
		<rect x="414" y="504" display="inline" fill="#FFFFFF" stroke="#3D3D36" stroke-width="5" stroke-miterlimit="10" width="180" height="144"/>
	<polygon display="inline" fill="#3D3D36" points="441,612 522,612 522,540 	"/>
	<polygon display="inline" fill="#F8C62C" points="558,567 522,540 522,567 	"/>
	<path display="inline" fill="#FFFFFF" stroke="#3D3D36" stroke-width="5" stroke-miterlimit="10" d="M519.5,611.5v13V611.5z"/>
	<path display="inline" fill="#FFFFFF" stroke="#3D3D36" stroke-width="5" stroke-miterlimit="10" d="M540,609.5h-18H540z"/>
</g>
<g id="Mic_Placed" display="none">
	<path display="inline" fill="#FFFFFF" stroke="#000000" stroke-miterlimit="10" d="M-490.443,661.366"/>
	<path display="inline" fill="#B7B7BC" stroke="#3D3D36" stroke-width="5" stroke-miterlimit="10" d="M-293.173,475.745
		c16.196-13.548,40.309-11.402,53.857,4.795c14.799,17.691,11.402,40.309-4.795,53.857c-16.196,13.548-40.309,11.402-53.857-4.795
		C-311.516,513.406-309.369,489.293-293.173,475.745z"/>
	
		<rect x="-406.862" y="482.255" transform="matrix(0.6416 0.767 -0.767 0.6416 324.0862 511.2103)" display="inline" fill="#3D3D36" width="43.695" height="240.325"/>
	
		<rect x="-397.74" y="523.677" transform="matrix(-0.6416 -0.767 0.767 -0.6416 -998.4612 668.2273)" display="inline" fill="#FFFFFF" stroke="#3D3D36" stroke-width="5" stroke-miterlimit="10" width="109.239" height="87.391"/>
	<polygon display="inline" fill="#3D3D36" points="-384.409,552.064 -352.869,589.769 -319.354,561.734 	"/>
	<polygon display="inline" fill="#F8C62C" points="-317.904,589.005 -319.354,561.734 -331.922,572.247 	"/>
	<path display="inline" fill="#FFFFFF" stroke="#3D3D36" stroke-width="5" stroke-miterlimit="10" d="M-353.61,588.411l-6.051,5.062
		L-353.61,588.411z"/>
	<path display="inline" fill="#FFFFFF" stroke="#3D3D36" stroke-width="5" stroke-miterlimit="10" d="M-344.697,597.175
		l-7.009-8.379L-344.697,597.175z"/>
</g>
<g id="Camera_Basic" display="none">
	<path display="inline" fill="#3D3D36" d="M251,396c0-16.333,17.333-35.667,36-36l468-0.004V649H288c-18,0-36-18-37-37V396z"/>
	<polygon display="inline" fill="#B7B7BC" stroke="#3D3D36" stroke-width="20" stroke-miterlimit="10" points="900.333,377.667 
		755,431.667 755,576.333 900.333,632.333 	"/>
	<path display="inline" fill="#3D3D36" stroke="#B7B7BC" stroke-width="20" stroke-miterlimit="10" d="M576,576H396
		c-35.667,0-34.667-144,0-144h180V576z"/>
	<polygon display="inline" fill="#3D3D36" points="441,648 441,702 324,936 360,936 450,765 468,765 468,936 504,936 504,765 
		522,765 603,936 639,936 531,702 531,648 	"/>
</g>
<g id="Camera_Placed" display="none">
	<path display="inline" fill="#3D3D36" d="M-390.019,462.297c0.016-7.716,8.224-16.833,17.043-16.972l221.096,0.458l-0.284,136.533
		l-220.624-0.459c-8.504-0.018-16.99-8.539-17.443-17.516L-390.019,462.297z"/>
	<polygon display="inline" fill="#B7B7BC" stroke="#3D3D36" stroke-width="10" stroke-miterlimit="10" points="-83.238,454.273 
		-151.95,479.642 -152.092,547.986 -83.488,574.585 	"/>
	<path display="inline" fill="#3D3D36" stroke="#B7B7BC" stroke-width="10" stroke-miterlimit="10" d="M-236.656,547.653
		l-85.037-0.177c-16.85-0.035-16.236-68.064,0.142-68.03l85.037,0.177L-236.656,547.653z"/>
	<polygon display="inline" fill="#3D3D36" points="-300.505,581.535 -300.558,607.046 -356.062,717.479 -339.054,717.515 
		-296.368,636.818 -287.864,636.836 -288.032,717.621 -271.025,717.656 -270.857,636.871 -262.353,636.889 -224.255,717.753 
		-207.247,717.789 -258.039,607.135 -257.986,581.623 	"/>
</g>
</svg>
