<?xml version="1.0" encoding="utf-8"?>
<!-- Generator: Adobe Illustrator 19.0.0, SVG Export Plug-In . SVG Version: 6.00 Build 0)  -->
<svg version="1.1" id="Layer_1" xmlns="http://www.w3.org/2000/svg" xmlns:xlink="http://www.w3.org/1999/xlink" x="0px" y="0px"
	 viewBox="206 -116 1024 1024" style="enable-background:new 206 -116 1024 1024;" xml:space="preserve">
<style type="text/css">
	.st0{display:none;}
	.st1{display:inline;fill:#FFF9E9;}
	.st2{fill:#3D3D36;}
	.st3{fill:#F8C62C;}
	.st4{fill:#B7B7BC;}
	.st5{fill:#FFFFFF;}
	.st6{fill:#3E3D37;}
	.st7{fill:#FFFFFF;stroke:#3D3D36;stroke-width:5;stroke-miterlimit:10;}
	.st8{fill:#3D3D36;stroke:#3D3D36;stroke-width:2;stroke-miterlimit:10;}
	.st9{fill:none;stroke:#3D3D36;stroke-width:5;stroke-miterlimit:10;}
</style>
<g id="background_1_" class="st0">
	<rect id="background" x="215.2" y="-116" class="st1" width="1024" height="1024"/>
</g>
<g>
	<g id="crow">
		<path class="st2" d="M206,683.5c229.8-272.6,520.6-580.1,599.4-614l80.6,0.9c13.5,75.2,146.2,517.9-415.5,508.9L206,683.5z"/>
		<path class="st3" d="M803.9,69.5h153.3c139.1,21.4,272.8,230,272.8,230l-319.1,2.7c-58.2,0.2-138.2-16-144-107
			C761.1,104.3,803.9,69.5,803.9,69.5z"/>
		<polygon class="st2" points="803.9,69.5 803.9,33 574.6,-11.1 574.6,-25.8 1186.3,-25.8 1186.3,89.1 1209.1,117.2 1142.2,117.2 
			1166.9,89.5 1166.9,-7.1 959.4,33.7 959.4,69.5 		"/>
		<path class="st4" d="M344.6,549.1l216.6-245.4c0,0,40.1-38.1,81.6-36.8c41.4,1.3,90.9,26.7,94.9,101.6s-97.6,109-154.4,129
			C526.5,517.7,344.6,549.1,344.6,549.1z"/>
		<path class="st2" d="M564.6,574.9c0,0,0.2,15.4,8,29c7.8,13.6,23.8,25.4,46.3,24.1c22.5-1.3,32.7-21.6,33.9-32.5
			c1.1-10.9,0-45.9,0-45.9L564.6,574.9z"/>
		<path class="st2" d="M643.1,565.8c0,0,18.8,16.5,32.3,24.2c13.5,7.7,25.6,10.6,41.4,12.6c15.8,2,49.8-4.7,58.5-19.4
			s5.5-25.1,2.2-32.3c-3.3-7.2-15.4-17.4-19.4-20.7s-14-7.7-14-7.7L643.1,565.8z"/>
		<polygon class="st2" points="612.3,626.4 669.2,709.5 602,709.5 602,727.9 787.5,727.9 787.5,709.9 692.8,709.8 631.4,614.9 		"/>
		<polygon class="st2" points="769.3,566.8 862.6,613.6 862.6,520.7 881,520.7 881,685.1 863,684.8 862.8,637.1 759.6,584.2 		"/>
		<path class="st2" d="M1048.2,301C951,276.8,922,223.7,922,223.7s61.5,62.8,232.2,76.4L1048.2,301z"/>
		<circle class="st5" cx="901.3" cy="148.8" r="46.1"/>
		<path class="st6" d="M886.5,155.4c0-2.3,0.3-4.5,0.8-6.5c0,0,24.1,9.5,26.5,6.4c2.1-2.6-13.7-23.6-13.7-23.6
			c4.1-2.4,8.8-3.8,13.9-3.8c15.2,0,27.5,12.3,27.5,27.5s-12.3,27.5-27.5,27.5C898.8,182.9,886.5,170.6,886.5,155.4z"/>
	</g>
	<g id="Clapper_Placed">
		<path class="st7" d="M857.7,548.4c0,0-43.5,128.3-51.5,152c-8,23.7,6.3,44.4,25.2,50.9c18.9,6.4,171,58.1,189.9,64.5
			c18.9,6.4,42.8-1.5,50.8-25.2c8.1-23.7,51.5-151.9,51.5-151.9L857.7,548.4z"/>
		<rect x="859" y="477.7" class="st8" width="300.8" height="35"/>
		
			<rect x="978" y="428.7" transform="matrix(0.3211 -0.947 0.947 0.3211 127.3992 1335.969)" class="st8" width="35" height="300.8"/>
		<polygon class="st9" points="853.5,591.9 920,614.4 1095.6,674 		"/>
		<path class="st9" d="M902.1,666.6l17.7-52.2L902.1,666.6z"/>
		<path class="st9" d="M835.9,644.2l242.2,82.1L835.9,644.2z"/>
		<path class="st9" d="M1033.8,653.1l-17.7,52.2L1033.8,653.1z"/>
		<line class="st9" x1="818" y1="696.4" x2="1055.5" y2="776.9"/>
		<polyline class="st9" points="859,587.2 874,583.1 879.1,594 896.2,593 		"/>
		<polyline class="st9" points="952.7,642.5 967.6,638.4 972.7,649.3 989.8,648.3 		"/>
		<polyline class="st9" points="863.5,612.2 878.4,608.2 883.6,619 900.7,618.1 		"/>
		<polyline class="st9" points="1043.2,673.2 1058.1,669.1 1063.3,680 1080.4,679 		"/>
		<polyline class="st9" points="833.9,718.9 848.8,714.9 854,725.7 871.1,724.7 		"/>
		<polyline class="st9" points="831,691.6 845.9,687.5 851.1,698.4 868.2,697.4 		"/>
		<polyline class="st9" points="837.2,673.5 852.1,669.4 857.2,680.3 874.3,679.3 		"/>
		<polyline class="st9" points="1001.4,796.5 1016.3,792.5 1021.4,803.3 1038.5,802.4 		"/>
		<polygon class="st4" points="1103.8,601.8 1081.5,620.7 1110,630.4 1132.3,611.5 		"/>
		<polygon class="st4" points="1046.8,582.5 1024.6,601.4 1053,611 1075.3,592.1 		"/>
		<polygon class="st4" points="989.9,563.1 967.6,582.1 996.1,591.7 1018.4,572.8 		"/>
		<polygon class="st4" points="932.9,543.8 910.6,562.7 939.1,572.4 961.4,553.5 		"/>
		<polygon class="st4" points="1119.4,506.9 1104.3,481.8 1134.4,481.8 1149.5,506.9 		"/>
		<polygon class="st4" points="1059.2,506.9 1044.2,481.8 1074.2,481.8 1089.3,506.9 		"/>
		<polygon class="st4" points="999,506.9 984,481.8 1014.1,481.8 1029.1,506.9 		"/>
		<polygon class="st4" points="938.9,506.9 923.8,481.8 953.9,481.8 969,506.9 		"/>
	</g>
</g>
</svg>
