<?xml version="1.0" encoding="utf-8"?>
<!-- Generator: Adobe Illustrator 19.0.0, SVG Export Plug-In . SVG Version: 6.00 Build 0)  -->
<svg version="1.1" baseProfile="basic" xmlns="http://www.w3.org/2000/svg" xmlns:xlink="http://www.w3.org/1999/xlink" x="0px"
	 y="0px" viewBox="0 0 1024 1024" xml:space="preserve">
<g id="background_1_" style="display:none;">
	<rect id="background" style="display:inline;fill:#FFF9E9;" width="1024" height="1024"/>
</g>
<g id="crow">
	<path style="fill:#3D3D36;" d="M117.806,682.526c171.86-203.858,389.37-433.854,448.282-459.192l60.246,0.666
		c10.081,56.265,109.333,387.329-310.733,380.583L117.806,682.526z"/>
	<path style="fill:#F8C62C;" d="M565,223.329h114.667c104,16,204,172,204,172l-238.667,2c-43.5,0.171-103.332-11.999-107.666-79.998
		C533,249.333,565,223.329,565,223.329z"/>
	<polygon style="fill:#3D3D36;" points="565,223.329 565,196 393.5,163 393.5,152 851,152 851,238 868,259 818,259 836.5,238.25 
		836.5,166 681.25,196.5 681.247,223.329 	"/>
	<path style="fill:#B7B7BC;" d="M221.5,582l162-183.5c0,0,30-28.5,61-27.5s68,20,71,76s-73,81.5-115.5,96.5S221.5,582,221.5,582z"/>
	<path style="fill:#3D3D36;" d="M386,601.331c0,0,0.168,11.498,6.001,21.667c5.832,10.169,17.832,18.996,34.665,17.999
		C443.5,640,451.152,624.822,452,616.664c0.848-8.158,0-34.331,0-34.331L386,601.331z"/>
	<path style="fill:#3D3D36;" d="M444.75,594.5c0,0,14.063,12.313,24.188,18.063s19.146,7.932,30.938,9.432s37.25-3.494,43.75-14.494
		s4.125-18.75,1.625-24.125s-11.5-13-14.5-15.5s-10.5-5.75-10.5-5.75L444.75,594.5z"/>
	<polygon style="fill:#3D3D36;" points="421.685,639.81 464.25,702 414,702 414,715.75 552.75,715.75 552.75,702.25 
		481.853,702.167 435.955,631.205 	"/>
	<polygon style="fill:#3D3D36;" points="539.127,595.269 608.897,630.255 608.897,560.755 622.647,560.755 622.647,683.755 
		609.147,683.506 609.065,647.858 531.82,608.241 	"/>
	<path style="fill:#3D3D36;" d="M747.668,396.468c-72.667-18.133-94.334-57.8-94.334-57.8s46,47,173.674,57.135L747.668,396.468z"/>
	<circle style="fill:#FFFFFF;" cx="637.805" cy="282.596" r="34.5"/>
	<path style="fill:#3E3D37;" d="M626.75,287.563c0-1.688,0.203-3.329,0.587-4.898c0,0,17.998,7.077,19.851,4.773
		c1.562-1.942-10.28-17.615-10.28-17.615c3.052-1.794,6.608-2.823,10.405-2.823c11.356,0,20.563,9.206,20.563,20.563
		s-9.206,20.563-20.563,20.563C635.956,308.125,626.75,298.919,626.75,287.563z"/>
</g>
<g id="label">
	<g>
		<path style="fill:#3D3D36;" d="M151.43,819v108h-4.752V825.768L71.366,927h-4.464V819h4.752v100.943L146.678,819H151.43z"/>
		<path style="fill:#3D3D36;" d="M251.797,819h4.752v108h-4.752v-41.184h-74.016V927h-4.752V819h4.752v62.641h74.016V819z"/>
		<path style="fill:#3D3D36;" d="M325.237,819v4.176h-24.624V927h-4.752V823.176h-24.912V819H325.237z"/>
		<path style="fill:#3D3D36;" d="M378.371,823.176h-33.984v58.752h28.368v4.176h-28.368v36.721h33.984V927h-38.736V819h38.736
			V823.176z"/>
		<path style="fill:#3D3D36;" d="M439.281,816.552L492.993,927h-5.184l-48.96-100.08L390.177,927h-4.608L439.281,816.552z"/>
		<path style="fill:#3D3D36;" d="M507.392,819H512c6.239,0,11.471,1.943,15.695,5.832c4.224,3.889,6.337,8.855,6.337,14.904
			c0,3.649-1.177,7.369-3.528,11.16c-2.354,3.793-5.112,6.264-8.28,7.416c7.392,1.824,13.536,5.76,18.433,11.808
			c4.896,6.048,7.344,13.657,7.344,22.823c0,9.17-3.506,17.137-10.512,23.904C530.479,923.616,521.983,927,512,927h-4.608V819z
			 M512,823.032v33.983h1.151c4.32,0,8.137-1.75,11.448-5.256c3.313-3.503,4.968-7.535,4.968-12.096
			c0-4.559-1.633-8.471-4.896-11.736c-3.265-3.262-7.105-4.896-11.521-4.896H512z M512,860.904v62.063h1.151
			c8.256,0,15.384-3.071,21.385-9.216c5.998-6.143,9-13.439,9-21.889c0-8.445-2.978-15.718-8.929-21.815
			c-5.953-6.095-13.104-9.144-21.456-9.144H512z"/>
		<path style="fill:#3D3D36;" d="M648.367,819v108h-4.752V825.768L568.303,927h-4.464V819h4.752v100.943L643.615,819H648.367z"/>
		<path style="fill:#3D3D36;" d="M664.208,940.968v-18.144h7.92l51.984-106.272l51.983,106.272h6.912v18.144h-4.464V927h-110.16
			v13.968H664.208z M723.68,826.488l-47.088,96.336H771.2L723.68,826.488z"/>
		<path style="fill:#3D3D36;" d="M837.582,823.176h-33.984v58.752h28.368v4.176h-28.368v36.721h33.984V927h-38.736V819h38.736
			V823.176z"/>
		<path style="fill:#3D3D36;" d="M864.724,911.88c-10.896-11.231-16.344-24.358-16.344-39.384c0-15.023,5.52-28.031,16.56-39.023
			c11.039-10.992,24.287-16.488,39.744-16.488c15.455,0,28.656,5.472,39.6,16.416c10.944,10.943,16.416,23.976,16.416,39.096
			s-5.424,28.273-16.271,39.456c-10.85,11.185-23.81,16.776-38.88,16.776h-2.16C888.506,928.729,875.618,923.111,864.724,911.88z
			 M955.947,872.784c0-14.159-5.017-26.303-15.048-36.433c-10.032-10.127-22.129-15.191-36.288-15.191
			c-14.161,0-26.279,5.064-36.359,15.191c-10.08,10.13-15.12,22.273-15.12,36.433c0,14.161,5.04,26.329,15.12,36.504
			c10.08,10.177,22.176,15.264,36.288,15.264c14.111,0,26.208-5.087,36.288-15.264C950.907,899.113,955.947,886.945,955.947,872.784
			z"/>
	</g>
</g>
<g id="Clapper_Placed">
	<path style="fill:#FFFFFF;stroke:#3D3D36;stroke-width:5;stroke-miterlimit:10;" d="M605.183,581.452
		c0,0-32.539,95.95-38.55,113.676c-6.01,17.724,4.712,33.238,18.853,38.034c14.141,4.795,127.892,43.444,142.032,48.239
		c14.14,4.795,31.981-1.108,38.003-18.865c6.021-17.757,38.537-113.642,38.537-113.642L605.183,581.452z"/>
	
		<rect x="606.227" y="528.626" style="fill:#3D3D36;stroke:#3D3D36;stroke-width:2;stroke-miterlimit:10;" width="225" height="26.181"/>
	
		<rect x="695.164" y="491.954" transform="matrix(-0.3211 0.947 -0.947 -0.3211 1508.1447 127.8333)" style="fill:#3D3D36;stroke:#3D3D36;stroke-width:2;stroke-miterlimit:10;" width="26.182" height="225"/>
	<polygon style="fill:none;stroke:#3D3D36;stroke-width:5;stroke-miterlimit:10;" points="602.06,614.014 651.778,630.874 
		783.179,675.434 	"/>
	<path style="fill:none;stroke:#3D3D36;stroke-width:5;stroke-miterlimit:10;" d="M638.4,669.896l13.248-39.066L638.4,669.896z"/>
	<path style="fill:none;stroke:#3D3D36;stroke-width:5;stroke-miterlimit:10;" d="M588.943,653.123l181.12,61.421L588.943,653.123z"
		/>
	<path style="fill:none;stroke:#3D3D36;stroke-width:5;stroke-miterlimit:10;" d="M736.946,659.756l-13.248,39.066L736.946,659.756z
		"/>
	
		<line style="fill:none;stroke:#3D3D36;stroke-width:5;stroke-miterlimit:10;" x1="575.565" y1="692.144" x2="753.132" y2="752.36"/>
	<polyline style="fill:none;stroke:#3D3D36;stroke-width:5;stroke-miterlimit:10;" points="606.227,610.492 617.377,607.454 
		621.222,615.577 634.007,614.852 	"/>
	<polyline style="fill:none;stroke:#3D3D36;stroke-width:5;stroke-miterlimit:10;" points="676.242,651.834 687.393,648.795 
		691.236,656.919 704.021,656.195 	"/>
	<polyline style="fill:none;stroke:#3D3D36;stroke-width:5;stroke-miterlimit:10;" points="609.57,629.225 620.72,626.185 
		624.565,634.31 637.35,633.586 	"/>
	<polyline style="fill:none;stroke:#3D3D36;stroke-width:5;stroke-miterlimit:10;" points="743.969,674.802 755.118,671.763 
		758.963,679.887 771.748,679.163 	"/>
	<polyline style="fill:none;stroke:#3D3D36;stroke-width:5;stroke-miterlimit:10;" points="587.446,709.015 598.596,705.975 
		602.44,714.099 615.226,713.375 	"/>
	<polyline style="fill:none;stroke:#3D3D36;stroke-width:5;stroke-miterlimit:10;" points="585.264,688.585 596.413,685.545 
		600.258,693.67 613.043,692.945 	"/>
	<polyline style="fill:none;stroke:#3D3D36;stroke-width:5;stroke-miterlimit:10;" points="589.854,675.047 601.004,672.009 
		604.849,680.132 617.633,679.408 	"/>
	<polyline style="fill:none;stroke:#3D3D36;stroke-width:5;stroke-miterlimit:10;" points="712.681,767.066 723.83,764.027 
		727.675,772.151 740.46,771.427 	"/>
	<polygon style="fill:#B7B7BC;" points="789.303,621.414 772.627,635.559 793.935,642.784 810.611,628.641 	"/>
	<polygon style="fill:#B7B7BC;" points="746.686,606.963 730.011,621.106 751.319,628.332 767.995,614.188 	"/>
	<polygon style="fill:#B7B7BC;" points="704.07,592.511 687.394,606.654 708.703,613.881 725.378,599.736 	"/>
	<polygon style="fill:#B7B7BC;" points="661.454,578.059 644.778,592.203 666.087,599.429 682.762,585.285 	"/>
	<polygon style="fill:#B7B7BC;" points="800.928,550.433 789.678,531.683 812.178,531.683 823.428,550.433 	"/>
	<polygon style="fill:#B7B7BC;" points="755.928,550.433 744.678,531.683 767.178,531.683 778.428,550.433 	"/>
	<polygon style="fill:#B7B7BC;" points="710.928,550.433 699.678,531.683 722.178,531.683 733.428,550.433 	"/>
	<polygon style="fill:#B7B7BC;" points="665.928,550.433 654.678,531.683 677.178,531.683 688.428,550.433 	"/>
</g>
</svg>
